# xmcd
#
# Track frame offsets:
#	150
#	21099
#	39663
#	60891
#	83440
#	107220
#	121023
#	145958
#	171258
#	189226
#	207157
#	224564
#	245502
#	265383
#
# Disc length: 3770 seconds
#
# Revision: 1
# Processed by: cddbd v1.5.2PL0 Copyright (c) Steve Scherf et al.
# Submitted via: audiograbber 1.83.01
#
DISCID=c00eb80e
DTITLE=Jett, Alvin and the Phat Noiz Blues Band - Honey Bowl
DYEAR=2009
DGENRE=Blues
TTITLE0=Make Me Blue
TTITLE1=Lay My Burden Down
TTITLE2=Bluesman's Hat
TTITLE3=Honey Bowl
TTITLE4=The Wreck
TTITLE5=3-Minute Man
TTITLE6=Lucky Charms
TTITLE7=Graveyard Shift
TTITLE8=Zombie Land
TTITLE9=Dem Haters
TTITLE10=Alone and Drinkin'
TTITLE11=Me, You and Cydnee
TTITLE12=A Year or Two or Ten or Twenty
TTITLE13=Runnin' Like A Dog
EXTD=
EXTT0=
EXTT1=
EXTT2=
EXTT3=
EXTT4=
EXTT5=
EXTT6=
EXTT7=
EXTT8=
EXTT9=
EXTT10=
EXTT11=
EXTT12=
EXTT13=
PLAYORDER=
